#tb 0: 1001/30000
0,          0,          0,        1,    68478, 0cd2876640e71de3a6df7839bd6f0b51
0,          1,          1,        1,    68478, f887db6839c0cddd1ea9ae6bfd2cc16d
0,          2,          2,        1,    68478, ff2a890cf4c4973bf181ba8424c2eadc
0,          3,          3,        1,    68478, f69f2e4f3036a21deb43a0bf4b95771f
0,          4,          4,        1,    68478, 93f511739c19f1a3b356dda39d945c93
0,          5,          5,        1,    68478, 7f79633c93765b504fef0324bd10fdba
0,          6,          6,        1,    68478, d6c53d3937c9a40b227b4486452e0b33
0,          7,          7,        1,    68478, 4e26625e8997ad6fe08ae68fbdfdbfd7
0,          8,          8,        1,    68478, 3bf4c8ac0279351bf904cf57b0fc13c1
0,          9,          9,        1,    68478, 12d64d856025185fa9e610dfa62b05af
